<?xml version="1.0" encoding="UTF-8"?>
<svg width="16px" height="16px" viewBox="0 0 16 16" version="1.1" xmlns="http://www.w3.org/2000/svg" xmlns:xlink="http://www.w3.org/1999/xlink">
    <defs>
        <path d="M11.0698271,7.99596544 L12.4394715,6.62632104 L13.8091159,7.99596544 L12.4394715,9.36560985 L11.0698271,7.99596544 Z M7.1932121,10.2007271 L5.81381816,11.580121 L0.0232727051,5.79006052 L5.81381816,0 L11.6038788,5.79006052 L10.224,7.16993928 L8.43151513,5.37745446 L6.22642422,3.17187874 L5.95103028,2.8964848 L5.81381816,2.75927268 L5.67660604,2.8964848 L5.40072725,3.17187874 L3.19563634,5.37745446 L2.91975755,5.6528484 L2.78254543,5.79006052 L2.91975755,5.92727264 L3.19563634,6.20315142 L5.40072725,8.4082423 L7.1932121,10.2007271 Z" id="path-1"></path>
    </defs>
    <g id="Page-1" stroke="none" stroke-width="1" fill="none" fill-rule="evenodd">
        <g id="mask-icon">
            <g id="Silhouette">
                <rect id="Rectangle-path" fill="#000000" fill-rule="nonzero" transform="translate(1.369099, 7.995792) rotate(-45.000000) translate(-1.369099, -7.995792) " x="0.400614535" y="7.02730728" width="1.9369697" height="1.9369697"></rect>
                <g id="logo" stroke-width="1" fill-rule="evenodd" transform="translate(2.181818, 0.000000)">
                    <polygon id="Shape" fill="#000000" fill-rule="nonzero" points="4.43393939 5.79006061 6.22642424 7.58254545 8.43151515 9.78763636 8.70739394 10.0635152 8.84460606 10.2007273 8.70739394 10.3379394 8.43151515 10.6133333 6.22642424 12.8189091 5.9510303 13.094303 5.81381818 13.2315152 5.67660606 13.094303 5.40072727 12.8189091 3.19563636 10.6133333 1.40315152 8.82084848 0.0232727273 10.2007273 5.81381818 15.9907879 11.6038788 10.2007273 5.81381818 4.41066667"></polygon>
                    <mask id="mask-2" fill="white">
                        <use xlink:href="#path-1"></use>
                    </mask>
                    <use id="Mask" fill="#000000" fill-rule="nonzero" xlink:href="#path-1"></use>
                </g>
            </g>
        </g>
    </g>
</svg>
